<?xml version="1.0" encoding="UTF-8" standalone="no"?>
<svg width="69px" height="63px" viewBox="0 0 69 63" version="1.1" xmlns="http://www.w3.org/2000/svg" xmlns:xlink="http://www.w3.org/1999/xlink">
    <!-- Generator: Sketch 3.8.3 (29802) - http://www.bohemiancoding.com/sketch -->
    <title>bot</title>
    <desc>Created with Sketch.</desc>
    <defs></defs>
    <g id="Page-2" stroke="none" stroke-width="1" fill="none" fill-rule="evenodd">
        <g id="Onboarding-Copy-4" transform="translate(-320.000000, -637.000000)">
            <g id="bot" transform="translate(354.500000, 668.500000) scale(-1, 1) translate(-354.500000, -668.500000) translate(320.000000, 637.000000)">
                <path d="M68.7086009,62.736244 L30.8169399,62.736244 C13.8085584,62.736244 0,48.6806426 0,31.3679713 C0,14.0556316 13.8085584,0 30.8169399,0 C47.8249957,0 61.6335837,14.0556316 61.6335837,31.3679713 C61.6335837,37.2129244 60.0596137,42.6865091 57.3203433,47.3733775 L68.7086009,62.736244 Z" id="Fill-1" fill="#42A1FA"></path>
                <g id="Group-8" transform="translate(10.957082, 3.052033)">
                    <polygon id="Fill-2" fill="#FFFFFF" points="21.0207167 0.111832536 21.0692833 0.112133971 21.1175536 0.112133971 21.165824 0.112435407 21.2143906 0.112736842 21.2626609 0.113339713 21.3106352 0.113942584 21.3589056 0.114244019 21.4068798 0.115148325 21.4551502 0.115751196 21.5031245 0.116655502 21.5508026 0.117559809 21.5987768 0.118464115 21.6467511 0.119368421 21.6944292 0.120574163 21.7421073 0.121779904 21.7897854 0.122985646 21.8374635 0.124492823 21.8851416 0.126 21.9325236 0.127507177 21.9799056 0.129014354 22.0275837 0.130521531 22.0749657 0.132330144 22.1220515 0.134138756 22.1694335 0.135947368 22.2165193 0.138057416 22.2639013 0.140167464 22.3109871 0.142277512 22.3577768 0.14438756 22.4048627 0.146799043 22.4519485 0.149210526 22.4987382 0.15162201 22.5455279 0.154033493 22.5923176 0.156746411 22.6391073 0.159157895 22.685897 0.161870813 22.7323906 0.164885167 22.7791803 0.167598086 22.8256738 0.17061244 22.8721674 0.173626794 22.9186609 0.176942584 22.9648584 0.179956938 23.0113519 0.183272727 23.0575494 0.186889952 23.1037468 0.190205742 23.1499442 0.193822967 23.1961416 0.197440191 23.2423391 0.201057416 23.2882403 0.204674641 23.3341416 0.208593301 23.3803391 0.212511962 23.4259442 0.216430622 23.4718455 0.220349282 23.5177468 0.224569378 23.5633519 0.228789474 23.6092532 0.233009569 23.6548584 0.2375311 23.7001674 0.242052632 23.7457725 0.246574163 23.7913777 0.251095694 23.8366867 0.255617225 23.8822918 0.260440191 23.9276009 0.265263158 23.9729099 0.27038756 24.0179227 0.275210526 24.0632318 0.280334928 24.1082446 0.28545933 24.1532575 0.290583732 24.1985665 0.296009569 24.2435794 0.301435407 24.2882961 0.306861244 24.333309 0.312287081 24.3780258 0.318014354 24.4230386 0.323741627 24.4677554 0.3294689 24.512176 0.335196172 24.5568927 0.34122488 24.6016094 0.347253589 24.64603 0.353282297 24.6904506 0.359311005 24.7351674 0.365641148 24.779588 0.371971292 24.8237124 0.378301435 24.868133 0.384631579 24.9122575 0.391263158 24.9566781 0.397894737 25.0008026 0.404526316 25.044927 0.41145933 25.0887554 0.418392344 25.1328798 0.425325359 25.1767082 0.432258373 25.2208326 0.439191388 25.2646609 0.446425837 25.3084893 0.453660287 25.3523176 0.460894737 25.3958498 0.468430622 25.4396781 0.475966507 25.4832103 0.483502392 25.5267425 0.491038278 25.5702747 0.498875598 25.6138069 0.506411483 25.6570429 0.514550239 25.7005751 0.52238756 25.7438112 0.530526316 25.7870472 0.538363636 25.8302833 0.546803828 25.8735193 0.554942584 25.9167554 0.563382775 25.9596953 0.571521531 26.0029313 0.580263158 26.0458712 0.588703349 26.0888112 0.597444976 26.1317511 0.606186603 26.174691 0.61492823 26.2173348 0.623669856 26.2602747 0.632712919 26.3029185 0.641755981 26.3455622 0.650799043 26.388206 0.660143541 26.4305536 0.669186603 26.4731974 0.6785311 26.5155451 0.688177033 26.5581888 0.697521531 26.6005365 0.707167464 26.6428841 0.716813397 26.6849356 0.72645933 26.7272833 0.736406699 26.7693348 0.746052632 26.8116824 0.756301435 26.8537339 0.766248804 26.8957854 0.776196172 26.9378369 0.786444976 26.9795923 0.79669378 27.0216438 0.807244019 27.0633991 0.817492823 27.1054506 0.828043062 27.1469099 0.838593301 27.1886652 0.849444976 27.2304206 0.859995215 27.272176 0.87084689 27.3136352 0.881698565 27.3550944 0.892851675 27.3965536 0.903703349 27.4380129 0.914856459 27.4794721 0.926311005 27.5209313 0.937464115 27.5620944 0.94891866 27.6032575 0.960373206 27.6444206 0.971827751 27.6855837 0.983282297 27.7267468 0.995038278 27.7679099 1.00679426 27.8087768 1.01855024 27.8499399 1.03060766 27.8908069 1.04266507 27.9316738 1.05472249 27.9725408 1.0667799 28.0131116 1.07883732 28.0539785 1.09119617 28.0945494 1.10355502 28.1354163 1.11621531 28.1759871 1.12857416 28.2165579 1.14123445 28.2568326 1.15389474 28.2974034 1.16655502 28.3376781 1.17951675 28.3782489 1.19247847 28.4185236 1.20544019 28.4587983 1.21840191 28.499073 1.23166507 28.5390515 1.24492823 28.5793262 1.25819139 28.6193047 1.27145455 28.6592833 1.28501914 28.6995579 1.29858373 28.7392403 1.31214833 28.7792189 1.32571292 28.8191974 1.33957895 28.8588798 1.35344498 28.8985622 1.367311 28.9385408 1.38147847 28.977927 1.3953445 29.0176094 1.40951196 29.0572918 1.42367943 29.0966781 1.43814833 29.1363605 1.45261722 29.1757468 1.46708612 29.215133 1.48155502 29.2545193 1.49602392 29.2939056 1.51079426 29.3329957 1.52556459 29.372382 1.54033493 29.4114721 1.5554067 29.4505622 1.57047847 29.4896524 1.58555024 29.5287425 1.60062201 29.5675365 1.61569378 29.6066266 1.63106699 29.6454206 1.64644019 29.6842146 1.6618134 29.7230086 1.67748804 29.7618026 1.69316268 29.8005966 1.70883732 29.8390944 1.72451196 29.8778884 1.74048804 29.9163863 1.75646411 29.9548841 1.77244019 29.993382 1.78841627 30.0318798 1.80469378 30.0703777 1.82066986 30.1085794 1.83694737 30.1467811 1.85352632 30.185279 1.86980383 30.2234807 1.88638278 30.2616824 1.90296172 30.299588 1.91984211 30.3377897 1.93642105 30.3756953 1.95330144 30.4136009 1.97018182 30.4518026 1.9870622 30.489412 2.00424402 30.5273176 2.02142584 30.5652232 2.03860766 30.6028326 2.05578947 30.6407382 2.07327273 30.6783476 2.09075598 30.7159571 2.10823923 30.7535665 2.12572249 30.791176 2.14350718 30.8284893 2.16129187 30.8660987 2.17907656 30.903412 2.19686124 30.9407253 2.21494737 30.9780386 2.23303349 31.0153519 2.25111962 31.0526652 2.26920574 31.0896824 2.2875933 31.1266996 2.30598086 31.1640129 2.32436842 31.20103 2.34275598 31.2380472 2.36144498 31.2747682 2.38013397 31.3117854 2.39882297 31.3488026 2.41751196 31.3855236 2.43650239 31.4222446 2.45549282 31.4589657 2.47448325 31.4956867 2.49347368 31.5324077 2.51276555 31.5688326 2.53205742 31.6052575 2.55134928 31.6419785 2.57064115 31.6784034 2.59023445 31.7148283 2.60982775 31.7512532 2.62942105 31.787382 2.64901435 31.8238069 2.66890909 31.8599356 2.68850239 31.8960644 2.70869856 31.9324893 2.7285933 31.9683219 2.74878947 32.0044506 2.76868421 32.0405794 2.78888038 32.076412 2.80937799 32.1125408 2.82957416 32.1483734 2.85007177 32.184206 2.87056938 32.2200386 2.89136842 32.2555751 2.91186603 32.2914077 2.93266507 32.3269442 2.95346411 32.3627768 2.97426316 32.3983133 2.99536364 32.4338498 3.01616268 32.4693863 3.03726316 32.5046266 3.05866507 32.5401631 3.07976555 32.5754034 3.10116746 32.6106438 3.12256938 32.6461803 3.14397129 32.6814206 3.16567464 32.7163648 3.18707656 32.7516052 3.2087799 32.7865494 3.23048325 32.8217897 3.25248804 32.8567339 3.27449282 32.8916781 3.29619617 32.9266223 3.31850239 32.9615665 3.34050718 32.9962146 3.3628134 33.0311588 3.38511962 33.0658069 3.40742584 33.1004549 3.42973206 33.1353991 3.45233971 33.1700472 3.47494737 33.2043991 3.49755502 33.2390472 3.52016268 33.2733991 3.54307177 33.3080472 3.56567943 33.3423991 3.58858852 33.3767511 3.61179904 33.411103 3.63470813 33.4454549 3.65791866 33.4795107 3.68112919 33.5138627 3.70433971 33.5479185 3.72785167 33.5819742 3.7510622 33.61603 3.77457416 33.6500858 3.79838756 33.6841416 3.82189952 33.7179013 3.84571292 33.7519571 3.86952632 33.7857167 3.89333971 33.8194764 3.91715311 33.8532361 3.94126794 33.8869957 3.96538278 33.9207554 3.98949761 33.954515 4.01361244 33.9879785 4.03802871 34.0214421 4.06214354 34.0552017 4.08655981 34.0886652 4.11127751 34.1218326 4.13569378 34.1552961 4.16041148 34.1887597 4.18512919 34.221927 4.20984689 34.2553906 4.23486603 34.2885579 4.25958373 34.3217253 4.28460287 34.3548927 4.30962201 34.3880601 4.33494258 34.4209313 4.35996172 34.4540987 4.3852823 34.48697 4.41060287 34.5198412 4.43622488 34.5527124 4.46154545 34.5855837 4.48716746 34.6184549 4.51278947 34.6513262 4.53841148 34.6839013 4.56433493 34.7167725 4.58995694 34.7493476 4.61588038 34.7819227 4.64180383 34.8144979 4.66802871 34.847073 4.69395215 34.8796481 4.72017703 34.911927 4.74640191 34.9445021 4.77292823 34.9767811 4.79915311 35.0090601 4.82567943 35.0413391 4.85220574 35.073618 4.87873206 35.105897 4.90555981 35.138176 4.93238756 35.1701588 4.95891388 35.2021416 4.98604306 35.2344206 5.01287081 35.2664034 5.04 35.2983863 5.06682775 35.330073 5.09395694 35.3620558 5.12138756 35.3940386 5.14851675 35.4257253 5.17594737 35.457412 5.20337799 35.4890987 5.23080861 35.5210815 5.25854067 35.5524721 5.28597129 35.5841588 5.31370335 35.6158455 5.34143541 35.6472361 5.3694689 35.6789227 5.39720096 35.7103133 5.42523445 35.7417039 5.45326794 35.7730944 5.48130144 35.804485 5.50963636 35.8355794 5.53766986 35.86697 5.56600478 35.8983605 5.59464115 35.9294549 5.62297608 35.9605494 5.651311 35.9916438 5.67994737 36.0227382 5.70858373 36.0538326 5.73752153 36.0846309 5.76615789 36.1157253 5.79509569 36.1465236 5.82403349 36.177618 5.85297129 36.2084163 5.88190909 36.2392146 5.91114833 36.2700129 5.94038756 36.3008112 5.96962679 36.3313133 5.99886603 36.3621116 6.02810526 36.3926137 6.05764593 36.423412 6.0871866 36.4539142 6.11672727 36.4844163 6.14656938 36.5149185 6.17611005 36.5451245 6.20595215 36.5756266 6.23579426 36.6061288 6.26563636 36.6363348 6.2957799 36.6665408 6.32592344 36.6970429 6.35606699 36.7269528 6.38621053 36.7571588 6.41635407 36.7873648 6.44679904 36.8175708 6.47694258 36.8477768 6.50738756 36.8776867 6.53813397 36.9075966 6.56857895 36.9375064 6.59932536 36.9677124 6.63007177 36.9973262 6.66081818 37.0272361 6.69156459 37.0571459 6.72261244 37.0870558 6.75335885 37.1166695 6.7844067 37.1462833 6.81575598 37.1761931 6.84680383 37.2058069 6.87815311 37.2354206 6.90950239 37.2650343 6.94085167 37.2943519 6.97220096 37.3239657 7.00355024 37.3535794 7.03520096 37.382897 7.06685167 37.4122146 7.09850239 37.4415322 7.13045455 37.4708498 7.16210526 37.5001674 7.19405742 37.529485 7.22600957 37.5588026 7.25796172 37.5881202 7.29021531 37.6171416 7.32216746 37.6461631 7.35442105 37.6754807 7.38697608 37.7045021 7.41922967 37.7335236 7.45148325 37.7625451 7.48403828 37.7915665 7.5165933 37.8202918 7.54914833 37.8493133 7.58200478 37.8780386 7.61455981 37.9070601 7.64741627 37.9357854 7.68027273 37.9645107 7.71312919 37.9932361 7.74628708 38.0219614 7.77914354 38.0506867 7.81230144 38.0791159 7.84545933 38.1078412 7.87891866 38.1365665 7.91207656 38.1649957 7.94553589 38.1934249 7.97899522 38.2218541 8.01245455 38.2502833 8.04591388 38.2787124 8.07967464 38.3071416 8.11343541 38.3355708 8.14719617 38.3637039 8.18095694 38.392133 8.2147177 38.4202661 8.2487799 38.4486953 8.28284211 38.4768283 8.31690431 38.5049614 8.35096651 38.5330944 8.38533014 38.5612275 8.41969378 38.5890644 8.45405742 38.6174936 8.48872249 38.6731674 8.55714833 38.7291373 8.62647847 38.7848112 8.69611005 38.840485 8.76574163 38.8958627 8.83597608 38.9512403 8.90621053 39.0063219 8.97674641 39.0616996 9.0472823 39.116485 9.11842105 39.1715665 9.18955981 39.2248712 9.25949282 39.2843948 9.342689 39.3379957 9.43010526 39.3856738 9.52083732 39.4274292 9.61458373 39.4623734 9.71104306 39.4910987 9.80991388 39.5130129 9.91029187 39.5281159 10.012177 39.5364077 10.1146651 39.5375923 10.2174545 39.5319657 10.320244 39.5195279 10.4224306 39.500279 10.5234115 39.474515 10.6228852 39.4419399 10.7202488 39.4028498 10.815201 39.3575408 10.9071388 39.3060129 10.9957608 39.2488584 11.0807656 39.1860773 11.1615502 39.1182618 11.237512 39.0451159 11.3089522 38.9675279 11.3749665 38.885794 11.4352536 38.8002103 11.4898134 38.711073 11.5386459 38.6186781 11.5808469 38.5239142 11.6164163 38.4270773 11.6456555 38.3284635 11.6679617 38.2283691 11.6833349 38.1276824 11.6917751 38.0264034 11.6929809 37.9254206 11.687555 37.8253262 11.6748947 37.725824 11.6553014 37.6280987 11.6287751 37.5324464 11.5956172 37.4391631 11.5558278 37.3488412 11.5097081 37.2617768 11.4575598 37.1785622 11.3990813 37.0991974 11.3354785 37.0242747 11.2661483 36.9543863 11.1916938 36.8895322 11.1130191 36.8383004 11.0461005 36.7885494 10.9815933 36.7385021 10.9170861 36.6884549 10.8528804 36.6384077 10.7886746 36.5883605 10.7250718 36.5380172 10.6617703 36.4876738 10.5987703 36.4373305 10.5357703 36.3869871 10.4733732 36.3360515 10.4106746 36.311176 10.3799282 36.2857082 10.3488804 36.2605365 10.318134 36.2350687 10.2870861 36.209897 10.2563397 36.1844292 10.2255933 36.1589614 10.1951483 36.1334936 10.1647033 36.1080258 10.1339569 36.0825579 10.103512 36.0570901 10.0733684 36.0316223 10.0429234 36.0061545 10.0127799 35.9806867 9.98263636 35.9552189 9.95249282 35.9294549 9.92265072 35.9039871 9.89250718 35.8782232 9.86266507 35.8527554 9.83282297 35.8269914 9.8032823 35.8012275 9.77344019 35.7754635 9.74389952 35.7499957 9.71435885 35.7242318 9.68481818 35.6984678 9.65557895 35.6727039 9.62603828 35.6469399 9.59679904 35.6208798 9.56786124 35.5951159 9.53862201 35.5693519 9.50968421 35.543588 9.48074641 35.5175279 9.45180861 35.4914678 9.42287081 35.4657039 9.39393301 35.4396438 9.36529665 35.4135837 9.33666029 35.3878197 9.30802392 35.3617597 9.279689 35.3356996 9.25105263 35.3096395 9.2227177 35.2835794 9.19438278 35.2575193 9.16634928 35.2311631 9.13801435 35.205103 9.10998086 35.1790429 9.08194737 35.1526867 9.05391388 35.1266266 9.02618182 35.1002704 8.99814833 35.0742103 8.97041627 35.0478541 8.94298565 35.0214979 8.91525359 34.9951416 8.88782297 34.9687854 8.86009091 34.9424292 8.83266029 34.916073 8.8055311 34.8897167 8.77810048 34.8633605 8.75097129 34.8367082 8.72384211 34.8103519 8.69671292 34.7839957 8.66988517 34.7573433 8.64275598 34.730691 8.61592823 34.7043348 8.58910048 34.6776824 8.56227273 34.65103 8.53574641 34.6243777 8.5092201 34.5977253 8.48269378 34.571073 8.45616746 34.5444206 8.42964115 34.5177682 8.40341627 34.4908197 8.37719139 34.4641674 8.35096651 34.437515 8.32474163 34.4105665 8.29881818 34.383618 8.27289474 34.3569657 8.24697129 34.3300172 8.22104785 34.3030687 8.1951244 34.2761202 8.16950239 34.2491717 8.14388038 34.2222232 8.11825837 34.1952747 8.09263636 34.1683262 8.06731579 34.1410815 8.04199522 34.114133 8.01667464 34.0871845 7.99135407 34.0599399 7.96633493 34.0326953 7.94101435 34.0057468 7.91599522 33.9785021 7.89097608 33.9512575 7.86625837 33.9240129 7.84123923 33.8967682 7.81652153 33.8695236 7.79180383 33.842279 7.76708612 33.8147382 7.74266986 33.7874936 7.71825359 33.7599528 7.69353589 33.7327082 7.66942105 33.7051674 7.64500478 33.6779227 7.62088995 33.650382 7.59647368 33.6228412 7.57235885 33.5953004 7.54854545 33.5677597 7.52443062 33.5402189 7.50061722 33.512382 7.47680383 33.4848412 7.45299043 33.4573004 7.42917703 33.4294635 7.40566507 33.4019227 7.38215311 33.3740858 7.35864115 33.3462489 7.33512919 33.318412 7.31191866 33.2905751 7.2884067 33.2627382 7.26519617 33.2349013 7.24198565 33.2070644 7.21907656 33.1792275 7.19586603 33.1510944 7.17295694 33.1232575 7.15004785 33.0951245 7.12713876 33.0672876 7.1045311 33.0391545 7.08192344 33.0110215 7.05931579 32.9828884 7.03670813 32.9547554 7.01410048 32.9266223 6.99179426 32.8984893 6.9691866 32.8703562 6.94688038 32.841927 6.9248756 32.813794 6.90256938 32.7853648 6.88056459 32.7572318 6.85855981 32.7288026 6.83655502 32.7003734 6.81455024 32.6719442 6.79284689 32.643515 6.77114354 32.6150858 6.74944019 32.5863605 6.72773684 32.5579313 6.70603349 32.5295021 6.68463158 32.5007768 6.66322967 32.4723476 6.64182775 32.4436223 6.62042584 32.414897 6.59932536 32.3861717 6.57792344 32.3574464 6.55682297 32.328721 6.53602392 32.2999957 6.51492344 32.2709742 6.4941244 32.2422489 6.47302392 32.2135236 6.45222488 32.1845021 6.43172727 32.1554807 6.41092823 32.1267554 6.39043062 32.0977339 6.36993301 32.0687124 6.34943541 32.039691 6.3289378 32.0103734 6.30874163 31.9813519 6.28854545 31.9523305 6.26834928 31.9230129 6.24815311 31.8939914 6.22795694 31.8646738 6.2080622 31.8353562 6.18816746 31.8060386 6.16827273 31.776721 6.14867943 31.7474034 6.12878469 31.7180858 6.10919139 31.6884721 6.08959809 31.6591545 6.07000478 31.6295408 6.05041148 31.6002232 6.03111962 31.5706094 6.01182775 31.5409957 5.99253589 31.511382 5.97324402 31.4817682 5.95425359 31.4521545 5.93496172 31.4222446 5.91597129 31.3926309 5.89698086 31.362721 5.87829187 31.3331073 5.85930144 31.3031974 5.84061244 31.2732876 5.82192344 31.2433777 5.80323445 31.2134678 5.78484689 31.1835579 5.76615789 31.1536481 5.74777033 31.1234421 5.72938278 31.0935322 5.71099522 31.0633262 5.69290909 31.0331202 5.67482297 31.0029142 5.65673684 30.9727082 5.63865072 30.9425021 5.62056459 30.9122961 5.6027799 30.8820901 5.58469378 30.851588 5.56690909 30.821382 5.54942584 30.7908798 5.53164115 30.7603777 5.51415789 30.7298755 5.49667464 30.6993734 5.47919139 30.6688712 5.46170813 30.6383691 5.44422488 30.607867 5.42704306 30.5770687 5.40986124 30.5462704 5.39267943 30.5157682 5.37549761 30.48497 5.35861722 30.4541717 5.34173684 30.4233734 5.32485646 30.3925751 5.30797608 30.3614807 5.29109569 30.3306824 5.27451675 30.299588 5.2579378 30.2684936 5.24135885 30.2376953 5.2247799 30.2066009 5.20850239 30.1752103 5.19192344 30.1441159 5.17564593 30.1130215 5.15936842 30.081927 5.14339234 30.0505365 5.12711483 30.0191459 5.11113876 29.9877554 5.09516268 29.9563648 5.0791866 29.9249742 5.06351196 29.8935837 5.04753589 29.8621931 5.03186124 29.8305064 5.0161866 29.7991159 5.00051196 29.7674292 4.98513876 29.7357425 4.96946411 29.7040558 4.95409091 29.6723691 4.9387177 29.6406824 4.92364593 29.6086996 4.90827273 29.5770129 4.89320096 29.54503 4.87812919 29.5133433 4.86305742 29.4813605 4.84798565 29.4490815 4.83321531 29.4170987 4.81844498 29.3851159 4.80367464 29.353133 4.78890431 29.3208541 4.77413397 29.2885751 4.75966507 29.2562961 4.74519617 29.2240172 4.73072727 29.1917382 4.71625837 29.1594592 4.70209091 29.1271803 4.68762201 29.0946052 4.67345455 29.06203 4.65928708 29.0297511 4.64542105 28.997176 4.63125359 28.9646009 4.61738756 28.9317296 4.60352153 28.8991545 4.5896555 28.8662833 4.57578947 28.8337082 4.56222488 28.8008369 4.54866029 28.7679657 4.53509569 28.7350944 4.5215311 28.7022232 4.50826794 28.6690558 4.49470335 28.6361845 4.48144019 28.6030172 4.46817703 28.5698498 4.45491388 28.5369785 4.44195215 28.503515 4.42899043 28.4703476 4.41602871 28.4371803 4.40306699 28.4037167 4.39010526 28.3705494 4.37744498 28.3370858 4.36448325 28.3036223 4.35182297 28.2701588 4.33946411 28.2366953 4.32680383 28.2029356 4.31444498 28.169176 4.30178469 28.1357124 4.28942584 28.1019528 4.27736842 28.0681931 4.26500957 28.0344335 4.25295215 28.0003777 4.24089474 27.966618 4.22883732 27.9325622 4.2167799 27.8985064 4.20502392 27.8647468 4.19296651 27.8303948 4.18121053 27.7963391 4.16945455 27.7622833 4.158 27.7279313 4.14624402 27.6938755 4.13478947 27.6595236 4.12333493 27.6251717 4.11188038 27.5908197 4.10072727 27.5561717 4.08957416 27.5218197 4.07811962 27.4871717 4.06696651 27.4525236 4.05611483 27.4178755 4.04496172 27.3832275 4.03411005 27.3485794 4.02325837 27.3136352 4.0124067 27.2789871 4.00155502 27.2440429 3.99100478 27.2090987 3.98045455 27.1741545 3.96990431 27.1392103 3.95935407 27.10397 3.94880383 27.0690258 3.93855502 27.0337854 3.92830622 26.9985451 3.91805742 26.9633047 3.90780861 26.9280644 3.89755981 26.8925279 3.88761244 26.8572876 3.87766507 26.8217511 3.8677177 26.7862146 3.85777033 26.7506781 3.8481244 26.7151416 3.83847847 26.6796052 3.82883254 26.6437725 3.8191866 26.6079399 3.80954067 26.5721073 3.80019617 26.5362747 3.79085167 26.5004421 3.78150718 26.4646094 3.77216268 26.4284807 3.76281818 26.3923519 3.75377512 26.3562232 3.74473206 26.3200944 3.735689 26.2839657 3.72664593 26.2478369 3.71790431 26.211412 3.70916268 26.1749871 3.70042105 26.1385622 3.69167943 26.1021373 3.6829378 26.0657124 3.67449761 26.0289914 3.66605742 25.9925665 3.65761722 25.9558455 3.64917703 25.9191245 3.64103828 25.8824034 3.63259809 25.8453863 3.62445933 25.8086652 3.61632057 25.7716481 3.60848325 25.7346309 3.6003445 25.6976137 3.59250718 25.6605966 3.58466986 25.6232833 3.57683254 25.5862661 3.56899522 25.5489528 3.56145933 25.5116395 3.55392344 25.4743262 3.54638756 25.4370129 3.53885167 25.3994034 3.53161722 25.3620901 3.52438278 25.3244807 3.51684689 25.2865751 3.50991388 25.2489657 3.50267943 25.2113562 3.49574641 25.1734506 3.48851196 25.1355451 3.48157895 25.0979356 3.47494737 25.0597339 3.46801435 25.0218283 3.46138278 24.9839227 3.4547512 24.945721 3.44811962 24.9075193 3.44148804 24.8693176 3.43515789 24.8311159 3.42852632 24.792618 3.42219617 24.7544163 3.41586603 24.7159185 3.40983732 24.6774206 3.40380861 24.6389227 3.39747847 24.6001288 3.39144976 24.5613348 3.38572249 24.5228369 3.37969378 24.4840429 3.37396651 24.4452489 3.36823923 24.4061588 3.36251196 24.3673648 3.35708612 24.3282747 3.35135885 24.2891845 3.34593301 24.2500944 3.34050718 24.2110043 3.33508134 24.171618 3.32995694 24.1325279 3.32483254 24.0931416 3.3194067 24.0537554 3.31458373 24.014073 3.30945933 23.9746867 3.30463636 23.9350043 3.29951196 23.8953219 3.294689 23.8556395 3.29016746 23.8159571 3.2853445 23.7762747 3.28082297 23.7362961 3.27630144 23.6963176 3.2717799 23.6563391 3.26725837 23.6163605 3.26303828 23.576382 3.25881818 23.5361073 3.25459809 23.4958326 3.25037799 23.4555579 3.24615789 23.4152833 3.24223923 23.3747124 3.23832057 23.3344378 3.23440191 23.293867 3.23078469 23.2532961 3.22686603 23.2127253 3.2232488 23.1721545 3.21963158 23.1312876 3.21601435 23.0904206 3.21269856 23.0495536 3.20938278 23.0086867 3.20606699 22.9675236 3.2027512 22.9266567 3.19943541 22.8854936 3.19642105 22.8443305 3.1934067 22.8031674 3.19039234 22.7617082 3.18737799 22.7205451 3.18436364 22.6790858 3.18165072 22.6376266 3.1789378 22.5958712 3.17622488 22.554412 3.1738134 22.5126567 3.17110048 22.4709013 3.168689 22.4291459 3.16627751 22.3873906 3.16416746 22.3456352 3.16175598 22.3035837 3.15964593 22.2615322 3.15753589 22.2194807 3.15542584 22.1774292 3.15361722 22.1350815 3.15150718 22.0927339 3.14969856 22.0503863 3.14788995 22.0080386 3.14638278 21.965691 3.14457416 21.9230472 3.14306699 21.8804034 3.14155981 21.8377597 3.14035407 21.7951159 3.13884689 21.7524721 3.13764115 21.7095322 3.13643541 21.6665923 3.13522967 21.6236524 3.13402392 21.5807124 3.13311962 21.5374764 3.13221531 21.4945365 3.131311 21.4513004 3.1304067 21.4080644 3.12980383 21.3645322 3.12920096 21.3212961 3.12859809 21.2777639 3.12799522 21.2342318 3.12739234 21.1906996 3.12709091 21.1471674 3.12678947 21.1033391 3.12648804 21.0595107 3.12648804 21.0156824 3.1261866 20.9718541 3.1261866 20.9277296 3.1261866 20.8839013 3.12648804 20.8397768 3.12648804 20.7956524 3.12678947 20.7512318 3.12709091 20.7071073 3.12739234 20.6626867 3.12799522 20.6182661 3.12829665 20.5738455 3.12889952 20.5291288 3.12980383 20.4847082 3.1304067 20.4399914 3.131311 20.3952747 3.13191388 20.3502618 3.13311962 20.3055451 3.13402392 20.2605322 3.13522967 20.2155193 3.13613397 20.1705064 3.13733971 20.1251974 3.13884689 20.079 3.14005263 19.9780172 3.1397512 19.8770343 3.13221531 19.7769399 3.11774641 19.67803 3.0963445 19.580897 3.06800957 19.4858369 3.03304306 19.3931459 2.99174641 19.3037124 2.94381818 19.2175365 2.89016268 19.1352103 2.83047847 19.05703 2.76506699 18.983588 2.6945311 18.9148841 2.61887081 18.8515107 2.538689 18.7934678 2.45428708 18.7413476 2.36626794 18.6951502 2.27463158 18.6553494 2.17998086 18.6219451 2.08291866 18.595115 1.98374641 18.5750073 1.88276555 18.5616811 1.78088038 18.5552549 1.67809091 18.5557288 1.57530144 18.563073 1.47251196 18.5773172 1.37062679 18.5983429 1.26994737 18.6260614 1.17107656 18.6605021 1.07431579 18.701073 0.979966507 18.7478627 0.888933014 18.8008712 0.801215311 18.8595064 0.717416268 18.9237682 0.637837321 18.9930644 0.56308134 19.0673948 0.493148325 19.1461674 0.428641148 19.2287897 0.369559809 19.3155579 0.316507177 19.4055837 0.269483254 19.4985708 0.229090909 19.593927 0.195028708 19.6913562 0.167598086 19.7905622 0.147100478 19.8906567 0.133535885 19.9916395 0.127205742 20.0399099 0.125698565 20.0896609 0.124191388 20.1391159 0.122985646 20.1885708 0.121478469 20.2380258 0.120574163 20.2871845 0.119368421 20.3366395 0.118162679 20.3857983 0.117258373 20.4349571 0.116354067 20.4841159 0.115751196 20.5329785 0.11484689 20.5821373 0.114244019 20.631 0.113641148 20.6798627 0.113339713 20.7287253 0.112736842 20.777588 0.112435407 20.8261545 0.112133971 20.8750172 0.112133971 20.9235837 0.111832536 20.9721502 0.111832536"></polygon>
                    <path d="M3.78869227,24.6969043 C5.75098712,24.6969043 7.34414678,26.3186268 7.34414678,28.3159378 C7.34414678,30.31349 5.75098712,31.9351522 3.78869227,31.9351522 C1.82639742,31.9351522 0.233237768,30.31349 0.233237768,28.3159378 C0.233237768,26.3186268 1.82639742,24.6969043 3.78869227,24.6969043 L3.78869227,24.6969043 Z" id="Fill-4" fill="#000000"></path>
                    <path d="M36.3582618,24.6969043 C38.3207639,24.6969043 39.9139828,26.3186268 39.9139828,28.3159378 C39.9139828,30.31349 38.3207639,31.9351522 36.3582618,31.9351522 C34.3960558,31.9351522 32.8028369,30.31349 32.8028369,28.3159378 C32.8028369,26.3186268 34.3960558,24.6969043 36.3582618,24.6969043 L36.3582618,24.6969043 Z" id="Fill-5" fill="#000000"></path>
                    <path d="M10.7251468,38.2541124 C11.0536815,38.2541124 29.7730558,38.3297124 29.7730558,38.2541124 C29.7730558,43.6045909 25.5054206,47.9484861 20.2489828,47.9484861 C14.9926931,47.9484861 10.7251468,43.6045909 10.7251468,38.2541124 L10.7251468,38.2541124 Z" id="Fill-6" fill="#FFFFFF"></path>
                    <path d="M42.6233433,16.844512 C41.7598069,17.5881531 40.4656867,17.4784306 39.7351159,16.599445 C39.0042489,15.7204593 39.1120429,14.4031866 39.9755794,13.6595455 C40.8391159,12.9159043 42.1335322,13.0256268 42.864103,13.9046124 C43.5946738,14.7832967 43.4868798,16.1008708 42.6233433,16.844512 L42.6233433,16.844512 Z" id="Fill-7" fill="#FFFFFF"></path>
                </g>
            </g>
        </g>
    </g>
</svg>